<svg width="400" height="400" viewBox="0 0 200 200" xmlns="http://www.w3.org/2000/svg">
  <defs>
    <linearGradient id="topSurface" x1="0%" y1="0%" x2="100%" y2="100%">
      <stop offset="0%" style="stop-color:#4a4a4a;stop-opacity:1" />
      <stop offset="100%" style="stop-color:#1a1a1a;stop-opacity:1" />
    </linearGradient>
    
    <filter id="cyanGlow" x="-50%" y="-50%" width="200%" height="200%">
      <feGaussianBlur stdDeviation="3.5" result="blur" />
      <feComposite in="SourceGraphic" in2="blur" operator="over" />
    </filter>
  </defs>

  <rect width="100%" height="100%" fill="#2c2e31" />

  <path d="M100 135 L45 112 L45 152 L100 175 Z" fill="#222" />
  <path d="M100 135 L155 112 L155 152 L100 175 Z" fill="#111" />
  <path d="M100 135 L155 112 L100 89 L45 112 Z" fill="#a0f0f5" filter="url(#cyanGlow)" />

  <path d="M100 95 L45 72 L45 112 L100 135 Z" fill="#2a2a2a" />
  <path d="M100 95 L155 72 L155 112 L100 135 Z" fill="#1a1a1a" />
  <path d="M100 95 L155 72 L100 49 L45 72 Z" fill="url(#topSurface)" stroke="#555" stroke-width="0.5" />
</svg>